<?xml version="1.0" encoding="UTF-8"?>
<svg id="Calque_2" data-name="Calque 2" xmlns="http://www.w3.org/2000/svg" xmlns:xlink="http://www.w3.org/1999/xlink" viewBox="0 0 449.38 449.38">
  <defs>
    <style>
      .cls-1, .cls-2, .cls-3 {
        fill: none;
      }

      .cls-4 {
        font-family: Sublima-ExtraBold, Sublima;
        font-size: 25.56px;
        font-weight: 700;
      }

      .cls-4, .cls-5 {
        fill: #9b1e21;
      }

      .cls-6 {
        fill: url(#Dégradé_sans_nom_4);
      }

      .cls-7 {
        fill: #cc5717;
      }

      .cls-2 {
        stroke: #0879bc;
        stroke-width: 9px;
      }

      .cls-2, .cls-3 {
        stroke-miterlimit: 10;
      }

      .cls-8 {
        fill: url(#Nouvelle_nuance_de_dégradé_1_2-2);
      }

      .cls-3 {
        stroke: #18355b;
        stroke-width: 10px;
      }

      .cls-9 {
        fill: url(#Dégradé_sans_nom_59);
      }

      .cls-10 {
        fill: url(#Dégradé_sans_nom_59-11);
      }

      .cls-11 {
        fill: url(#Dégradé_sans_nom_59-16);
      }

      .cls-12 {
        fill: url(#Dégradé_sans_nom_59-10);
      }

      .cls-13 {
        fill: url(#Dégradé_sans_nom_59-12);
      }

      .cls-14 {
        fill: url(#Dégradé_sans_nom_59-14);
      }

      .cls-15 {
        fill: url(#Dégradé_sans_nom_59-15);
      }

      .cls-16 {
        fill: url(#Dégradé_sans_nom_59-13);
      }

      .cls-17 {
        fill: url(#Dégradé_sans_nom_59-21);
      }

      .cls-18 {
        fill: url(#Dégradé_sans_nom_59-20);
      }

      .cls-19 {
        fill: url(#Dégradé_sans_nom_59-17);
      }

      .cls-20 {
        fill: url(#Dégradé_sans_nom_59-18);
      }

      .cls-21 {
        fill: url(#Dégradé_sans_nom_59-19);
      }

      .cls-22 {
        letter-spacing: 0em;
      }

      .cls-23 {
        fill: url(#Dégradé_sans_nom_59-2);
      }

      .cls-24 {
        fill: url(#Dégradé_sans_nom_59-4);
      }

      .cls-25 {
        fill: url(#Dégradé_sans_nom_59-3);
      }

      .cls-26 {
        fill: url(#Dégradé_sans_nom_59-6);
      }

      .cls-27 {
        fill: url(#Dégradé_sans_nom_59-5);
      }

      .cls-28 {
        fill: url(#Dégradé_sans_nom_59-8);
      }

      .cls-29 {
        fill: url(#Dégradé_sans_nom_59-7);
      }

      .cls-30 {
        fill: url(#Dégradé_sans_nom_59-9);
      }

      .cls-31 {
        fill: url(#Nouvelle_nuance_de_dégradé_1_2);
      }
    </style>
    <linearGradient id="Nouvelle_nuance_de_dégradé_1_2" data-name="Nouvelle nuance de dégradé 1 2" x1="237.74" y1="302.48" x2="354.84" y2="302.48" gradientUnits="userSpaceOnUse">
      <stop offset="0" stop-color="#202e56"/>
      <stop offset="1" stop-color="#0d83c6"/>
    </linearGradient>
    <linearGradient id="Dégradé_sans_nom_59" data-name="Dégradé sans nom 59" x1="100.3" y1="5866.26" x2="322.02" y2="5866.26" gradientTransform="translate(0 6070.71) scale(1 -1)" gradientUnits="userSpaceOnUse">
      <stop offset="0" stop-color="#0d83c6"/>
      <stop offset="1" stop-color="#202e56"/>
    </linearGradient>
    <linearGradient id="Dégradé_sans_nom_59-2" data-name="Dégradé sans nom 59" x1="100.3" y1="5862.86" x2="322.02" y2="5862.86" xlink:href="#Dégradé_sans_nom_59"/>
    <linearGradient id="Dégradé_sans_nom_59-3" data-name="Dégradé sans nom 59" x1="100.3" y1="5867.39" x2="322.02" y2="5867.39" xlink:href="#Dégradé_sans_nom_59"/>
    <linearGradient id="Dégradé_sans_nom_59-4" data-name="Dégradé sans nom 59" x1="100.3" y1="5862.86" x2="322.02" y2="5862.86" xlink:href="#Dégradé_sans_nom_59"/>
    <linearGradient id="Dégradé_sans_nom_59-5" data-name="Dégradé sans nom 59" x1="100.3" y1="5862.61" x2="322.02" y2="5862.61" xlink:href="#Dégradé_sans_nom_59"/>
    <linearGradient id="Dégradé_sans_nom_59-6" data-name="Dégradé sans nom 59" x1="100.3" y1="5862.86" x2="322.02" y2="5862.86" xlink:href="#Dégradé_sans_nom_59"/>
    <linearGradient id="Dégradé_sans_nom_59-7" data-name="Dégradé sans nom 59" x1="100.3" y1="5862.98" x2="322.02" y2="5862.98" xlink:href="#Dégradé_sans_nom_59"/>
    <linearGradient id="Dégradé_sans_nom_59-8" data-name="Dégradé sans nom 59" x1="100.3" y1="5867.39" x2="322.02" y2="5867.39" xlink:href="#Dégradé_sans_nom_59"/>
    <linearGradient id="Dégradé_sans_nom_59-9" data-name="Dégradé sans nom 59" x1="100.3" y1="5865.75" x2="322.02" y2="5865.75" xlink:href="#Dégradé_sans_nom_59"/>
    <linearGradient id="Dégradé_sans_nom_59-10" data-name="Dégradé sans nom 59" x1="100.3" y1="5867.01" x2="322.02" y2="5867.01" xlink:href="#Dégradé_sans_nom_59"/>
    <linearGradient id="Dégradé_sans_nom_4" data-name="Dégradé sans nom 4" x1="945.28" y1="8638.37" x2="1024.66" y2="8638.37" gradientTransform="translate(7739.13 -1060.91) rotate(87.04) scale(.86 .87) skewX(-.2)" gradientUnits="userSpaceOnUse">
      <stop offset="0" stop-color="#0882c5"/>
      <stop offset="1" stop-color="#202e55"/>
    </linearGradient>
    <linearGradient id="Nouvelle_nuance_de_dégradé_1_2-2" data-name="Nouvelle nuance de dégradé 1 2" x1="155.76" y1="6001.3" x2="272.86" y2="6001.3" gradientTransform="translate(81.7 6141.68) scale(1 -1)" xlink:href="#Nouvelle_nuance_de_dégradé_1_2"/>
    <linearGradient id="Dégradé_sans_nom_59-11" data-name="Dégradé sans nom 59" x1="100.56" y1="5827.92" x2="322.27" y2="5827.92" xlink:href="#Dégradé_sans_nom_59"/>
    <linearGradient id="Dégradé_sans_nom_59-12" data-name="Dégradé sans nom 59" x1="100.56" y1="5824.02" x2="322.27" y2="5824.02" xlink:href="#Dégradé_sans_nom_59"/>
    <linearGradient id="Dégradé_sans_nom_59-13" data-name="Dégradé sans nom 59" x1="100.56" y1="5824.39" x2="322.27" y2="5824.39" xlink:href="#Dégradé_sans_nom_59"/>
    <linearGradient id="Dégradé_sans_nom_59-14" data-name="Dégradé sans nom 59" x1="100.56" y1="5827.92" x2="322.27" y2="5827.92" xlink:href="#Dégradé_sans_nom_59"/>
    <linearGradient id="Dégradé_sans_nom_59-15" data-name="Dégradé sans nom 59" x1="100.56" y1="5824.52" x2="322.27" y2="5824.52" xlink:href="#Dégradé_sans_nom_59"/>
    <linearGradient id="Dégradé_sans_nom_59-16" data-name="Dégradé sans nom 59" x1="100.56" y1="5827.17" x2="322.27" y2="5827.17" xlink:href="#Dégradé_sans_nom_59"/>
    <linearGradient id="Dégradé_sans_nom_59-17" data-name="Dégradé sans nom 59" x1="100.56" y1="5828.93" x2="322.27" y2="5828.93" xlink:href="#Dégradé_sans_nom_59"/>
    <linearGradient id="Dégradé_sans_nom_59-18" data-name="Dégradé sans nom 59" x1="100.56" y1="5827.92" x2="322.27" y2="5827.92" xlink:href="#Dégradé_sans_nom_59"/>
    <linearGradient id="Dégradé_sans_nom_59-19" data-name="Dégradé sans nom 59" x1="100.56" y1="5827.92" x2="322.27" y2="5827.92" xlink:href="#Dégradé_sans_nom_59"/>
    <linearGradient id="Dégradé_sans_nom_59-20" data-name="Dégradé sans nom 59" x1="100.56" y1="5824.02" x2="322.27" y2="5824.02" xlink:href="#Dégradé_sans_nom_59"/>
    <linearGradient id="Dégradé_sans_nom_59-21" data-name="Dégradé sans nom 59" x1="100.56" y1="5824.39" x2="322.27" y2="5824.39" xlink:href="#Dégradé_sans_nom_59"/>
  </defs>
  <g id="Calque_1-2" data-name="Calque 1">
    <g>
      <g>
        <path class="cls-7" d="M357.96,201.21c.11,1.7.1,3.95,0,5.65-.2,3.33-2.24,11.06-5.93,12.02-6.41,1.68-8.98-7.76-9.34-12.45-.37-4.76,1.01-17.4,7.49-17.68,5.32-.23,7.52,8.29,7.78,12.46Z"/>
        <path class="cls-5" d="M357.96,235.14c.12,1.75.12,4.19,0,5.94-.24,3.6-2.21,11-6.21,12.02-5.56,1.43-8.11-6.28-8.74-10.51-.75-5.01-.05-17.02,5.55-19.25,6.25-2.5,9.09,7.28,9.4,11.8Z"/>
        <path class="cls-31" d="M341.55,264.26c-.23,1.23-.78,2.52-1.28,3.67-2.73,6.26-6.04,12.95-9.75,18.67-6.61,10.2-15.99,20.39-25.46,27.99-7.99,6.41-18.28,12.7-27.72,16.68-12.51,5.28-26.07,8.18-39.6,9.19,13.44.95,26.75-.93,39.6-4.67,10.36-3.01,19.07-6.89,28.29-12.44,9.71-5.85,17.75-12.64,25.46-20.92,10.28-11.05,18.47-23.98,23.76-38.17h-13.29Z"/>
        <circle class="cls-2" cx="224.2" cy="216.84" r="164.84"/>
        <circle class="cls-3" cx="224.69" cy="216.53" r="172.58"/>
        <g>
          <path class="cls-9" d="M131.04,207.72v-17.38h7.05v17.38c0,2.77,2.02,4.54,4.79,4.54s4.79-2.02,4.79-4.54v-17.38h7.05v17.64c0,6.55-4.79,10.58-11.84,10.58s-11.84-4.28-11.84-10.83Z"/>
          <path class="cls-23" d="M159.26,198.15h6.05v1.76c1.26-1.26,2.77-2.27,5.29-2.27,4.54,0,8.31,3.28,8.31,8.06v12.35h-6.55v-12.35c0-2.02-1.26-3.28-3.28-3.28s-3.28,1.26-3.28,3.28v12.35h-6.55v-19.9h0Z"/>
          <path class="cls-25" d="M186.22,188.58c2.02,0,3.53,1.51,3.53,3.53s-1.51,3.53-3.53,3.53-3.53-1.51-3.53-3.53,1.51-3.53,3.53-3.53ZM182.94,198.15h6.55v19.9h-6.55v-19.9Z"/>
          <path class="cls-24" d="M192.01,198.15h6.55l4.03,11.59,4.03-11.84h6.55l-7.31,19.9h-6.55l-7.31-19.9h0v.25Z"/>
          <path class="cls-27" d="M214.19,207.98c0-6.3,4.28-10.58,10.58-10.58s10.58,4.28,10.58,10.58,0,1.26,0,2.02h-14.11c.5,2.27,1.76,4.03,3.78,4.03s2.52-.76,3.02-2.02h6.8c-1.26,4.28-5.04,6.8-9.83,6.8s-10.58-4.28-10.58-10.58h0l-.25-.25ZM228.3,205.96c-.5-2.52-1.76-4.03-3.78-4.03s-3.28,1.51-3.78,4.03h7.56Z"/>
          <path class="cls-26" d="M238.37,198.15h6.05v1.76c1.26-1.26,2.77-2.27,5.29-2.27s1.51,0,2.27,0v4.79h-2.52c-2.52,0-4.54.76-4.54,3.28v12.35h-6.55v-19.9h0Z"/>
          <path class="cls-29" d="M253.49,211.5h6.3c0,1.51,1.26,2.27,3.28,2.27s3.28-.76,3.28-2.02-2.02-2.02-4.54-2.52c-3.53-.76-7.81-1.76-7.81-6.05s3.53-6.05,9.07-6.05,9.07,2.52,9.07,6.3h-6.3c0-1.01-1.01-1.76-2.77-1.76s-2.77.5-2.77,1.51,1.76,1.51,4.03,2.02c3.53.76,8.31,1.51,8.31,6.55s-3.78,6.55-9.57,6.55-9.57-2.77-9.57-6.8h0Z"/>
          <path class="cls-28" d="M279.19,188.58c2.02,0,3.53,1.51,3.53,3.53s-1.51,3.53-3.53,3.53-3.53-1.51-3.53-3.53,1.51-3.53,3.53-3.53ZM276.17,198.15h6.55v19.9h-6.55v-19.9Z"/>
          <path class="cls-30" d="M288.51,211.76v-9.57h-3.02v-4.28h3.02v-5.79h6.55v5.79h3.78v4.28h-3.78v9.07c0,1.01.5,1.51,1.26,1.51h2.52v5.04h-3.53c-4.03,0-6.8-2.52-6.8-6.05h0Z"/>
          <path class="cls-12" d="M301.11,207.98c0-6.3,4.28-10.58,10.58-10.58s10.58,4.28,10.58,10.58,0,1.26,0,2.02h-14.11c.5,2.27,1.76,4.03,3.78,4.03s2.52-.76,3.02-2.02h6.8c-1.26,4.28-5.04,6.8-9.83,6.8s-10.58-4.28-10.58-10.58h0l-.25-.25ZM315.22,205.96c-.5-2.52-1.76-4.03-3.78-4.03s-3.28,1.51-3.78,4.03h7.56ZM311.94,188.58h6.05l-3.78,6.55h-6.05l3.78-6.55h0Z"/>
        </g>
        <g>
          <path class="cls-6" d="M157.29,134.02l4.66-2.7.74,1.27-3.15,1.82.59,1.02,2.77-1.61.69,1.19-2.77,1.61.59,1.02,3.23-1.87.74,1.27-4.74,2.74-3.35-5.78ZM158.06,131.01l.9-.52,2.15.57-1.26.73-.92-.31-.19.95-1.26.73.57-2.15Z"/>
          <path class="cls-6" d="M166.33,134.9l-1.05-2.03-.65.33-.47-.9.65-.33-.65-1.25,1.42-.74.65,1.26.84-.43.47.9-.84.43,1.01,1.94c.1.2.27.29.46.18l.55-.28.56,1.08-.76.39c-.9.47-1.78.25-2.19-.55Z"/>
          <path class="cls-6" d="M168.55,130.05l1.33-.63.17.36c.12-.41.4-.79.94-1.05.17-.08.34-.13.52-.17l.49,1.03c-.2.07-.4.14-.57.22-.58.27-.9.65-.64,1.2l1.27,2.69-1.45.68-2.06-4.34Z"/>
          <path class="cls-6" d="M173.52,130.36c-.59-1.41-.03-2.75,1.4-3.35,1.44-.61,2.78-.06,3.37,1.34.06.15.11.29.15.44l-3.2,1.35c.31.5.79.7,1.22.52.31-.13.5-.43.52-.78l1.54-.65c.1,1.06-.49,2-1.62,2.47-1.43.6-2.78.07-3.37-1.34ZM176.58,128.57c-.31-.5-.79-.7-1.23-.51-.43.18-.62.67-.49,1.24l1.71-.72Z"/>
          <path class="cls-6" d="M182.59,125.31l-.72.25-.33-.96.72-.25-.13-.37c-.29-.85.16-1.63,1.12-1.96l.86-.29.38,1.11-.63.21c-.21.07-.27.24-.19.46l.11.32.94-.32.33.96-.94.32,1.22,3.58-1.52.51-1.22-3.58Z"/>
          <path class="cls-6" d="M186.56,125.43c-.42-1.47.3-2.74,1.82-3.17,1.52-.44,2.81.26,3.23,1.71.42,1.47-.3,2.74-1.82,3.17-1.52.44-2.81-.25-3.23-1.71ZM189.46,126.02c.59-.17.83-.81.6-1.6-.23-.79-.77-1.2-1.36-1.03-.59.17-.83.81-.61,1.6.23.79.77,1.2,1.36,1.03Z"/>
          <path class="cls-6" d="M192.54,121.27l1.43-.35.09.39c.21-.37.55-.69,1.13-.83.18-.04.36-.06.54-.06l.27,1.1c-.21.02-.42.05-.6.1-.62.15-1.02.46-.87,1.05l.69,2.89-1.56.38-1.12-4.66Z"/>
          <path class="cls-6" d="M197.22,120.13l1.45-.26.07.4c.22-.36.56-.66,1.1-.75.52-.09,1.05.02,1.46.3.3-.39.73-.69,1.33-.8,1.22-.21,2.26.38,2.46,1.49l.53,3-1.58.28-.53-3c-.07-.42-.41-.66-.83-.58-.42.08-.65.41-.58.84l.53,3-1.59.28-.53-3c-.07-.42-.4-.66-.83-.58-.42.08-.66.41-.58.84l.53,3-1.58.28-.84-4.73Z"/>
          <path class="cls-6" d="M206.65,120.98c-.16-1.52.76-2.64,2.3-2.81,1.55-.17,2.68.74,2.85,2.25.02.16.02.31.01.46l-3.46.37c.15.56.56.89,1.02.84.33-.04.6-.27.72-.6l1.66-.18c-.21,1.05-1.04,1.77-2.26,1.9-1.54.17-2.68-.73-2.85-2.25ZM208.83,116.06l1.49-.16-.75,1.67-1.49.16.75-1.67ZM210.1,120.14c-.15-.56-.56-.89-1.03-.84-.47.05-.79.46-.82,1.04l1.85-.2Z"/>
          <path class="cls-6" d="M213.06,121.2l1.56-.09c.02.34.36.55.85.52.49-.03.8-.23.78-.51-.02-.35-.53-.44-1.14-.53-.89-.13-1.98-.29-2.04-1.37-.05-.87.82-1.5,2.16-1.57,1.35-.08,2.28.48,2.33,1.38l-1.56.09c-.02-.25-.3-.4-.71-.38-.41.02-.68.18-.67.38.02.29.46.35,1.01.42.9.11,2.09.26,2.16,1.48.05.94-.86,1.62-2.28,1.7-1.42.08-2.41-.53-2.46-1.53Z"/>
          <path class="cls-6" d="M223.24,115.3c.49,0,.87.39.86.87,0,.48-.4.86-.88.86-.49,0-.87-.39-.87-.87,0-.48.4-.86.89-.85ZM222.41,117.61h1.61s-.05,4.8-.05,4.8h-1.61s.05-4.8.05-4.8Z"/>
          <path class="cls-6" d="M225.52,120.06c.06-1.53,1.14-2.51,2.69-2.45,1.46.05,2.26.87,2.36,2.06l-1.61-.06c-.08-.48-.3-.8-.79-.82-.59-.02-1.01.51-1.04,1.33s.34,1.38.94,1.41c.5.02.74-.29.85-.76l1.61.06c-.19,1.17-1.04,1.93-2.5,1.87-1.55-.06-2.56-1.12-2.5-2.64Z"/>
          <path class="cls-6" d="M232.26,118.03l1.6.15-.44,4.77-1.6-.14.44-4.77ZM233.27,115.8c.48.04.84.46.79.94-.04.48-.46.82-.95.78-.49-.04-.84-.46-.8-.94.04-.47.46-.82.95-.78Z"/>
          <path class="cls-6" d="M236.05,123.47v-.1s-.08,0-.12,0c-.53-.06-.92-.54-.85-1.06.06-.51.54-.89,1.08-.82.53.06.91.54.85,1.05l-.12,1.03c-.08.72-.73,1.05-1.82.92l.09-.74c.56.07.87-.04.9-.28Z"/>
          <path class="cls-6" d="M241.8,121.62c.29-1.5,1.5-2.31,3.03-2.02,1.43.27,2.1,1.19,2.02,2.38l-1.58-.3c0-.48-.17-.83-.66-.92-.58-.11-1.07.35-1.23,1.16s.13,1.42.71,1.53c.49.09.77-.17.95-.62l1.58.3c-.36,1.13-1.32,1.75-2.75,1.48-1.52-.29-2.36-1.48-2.07-2.98Z"/>
          <path class="cls-6" d="M249.15,118.73l1.34.31-.69,2.99-1.33-.31.69-2.99Z"/>
          <path class="cls-6" d="M250.96,123.53c.4-1.47,1.67-2.18,3.17-1.77,1.51.41,2.22,1.67,1.82,3.13-.04.15-.09.3-.16.44l-3.36-.92c-.06.58.19,1.04.64,1.16.32.09.66-.03.89-.29l1.61.44c-.58.9-1.62,1.27-2.8.95-1.49-.41-2.23-1.66-1.82-3.13ZM254.48,124.01c.06-.58-.19-1.04-.65-1.16-.45-.12-.9.14-1.15.67l1.79.49Z"/>
          <path class="cls-6" d="M256.84,126.1l1.48.49c-.11.32.13.64.59.8.46.15.83.08.92-.18.11-.33-.33-.6-.86-.91-.77-.45-1.73-1-1.39-2.03.27-.82,1.31-1.09,2.59-.66,1.29.43,1.94,1.29,1.66,2.15l-1.48-.49c.08-.24-.13-.48-.52-.61-.39-.13-.7-.08-.76.11-.09.27.3.5.79.76.79.44,1.85,1.02,1.46,2.17-.3.89-1.4,1.18-2.74.73-1.35-.45-2.04-1.38-1.73-2.33Z"/>
          <path class="cls-6" d="M263.05,128.26l.82-2.14-.68-.26.36-.94.68.26.51-1.32,1.5.57-.51,1.32.88.34-.36.95-.88-.34-.78,2.04c-.08.21-.03.39.17.47l.57.22-.43,1.14-.8-.31c-.95-.36-1.37-1.16-1.05-2Z"/>
          <path class="cls-6" d="M270.58,132.61l-.15.31-1.34-.62,2.83-6.05,1.45.68-.89,1.92c.38-.09.77-.05,1.15.13,1.26.58,1.75,1.93,1.1,3.32-.65,1.38-2,1.88-3.25,1.29-.44-.2-.74-.54-.91-.96ZM271.82,132.43c.54.25,1.12-.08,1.47-.82s.22-1.4-.31-1.65c-.53-.25-1.12.08-1.47.82-.35.75-.22,1.41.32,1.65Z"/>
          <path class="cls-6" d="M277.22,130.87l1.3.68-.19.35c.4-.14.87-.16,1.4.12.16.09.31.19.44.31l-.53,1.01c-.18-.12-.35-.24-.52-.32-.57-.3-1.06-.33-1.35.21l-1.38,2.63-1.42-.74,2.23-4.25Z"/>
          <path class="cls-6" d="M281.39,133.11l1.4.79-2.37,4.16-1.4-.79,2.37-4.16ZM283.23,131.5c.42.24.57.77.33,1.18-.24.42-.77.56-1.19.32-.43-.24-.58-.76-.34-1.18.24-.41.77-.56,1.19-.32Z"/>
          <path class="cls-6" d="M285.37,133.21l1.37.83-3.46,5.73-1.37-.83,3.46-5.73Z"/>
          <path class="cls-6" d="M288.34,135.04l1.35.87-3.61,5.63-1.35-.87,3.61-5.63Z"/>
          <path class="cls-6" d="M288.66,140.34c.87-1.25,2.31-1.49,3.58-.61,1.28.89,1.53,2.32.66,3.56-.09.13-.19.25-.3.36l-2.85-1.99c-.25.53-.17,1.04.22,1.31.27.19.63.19.93.02l1.37.96c-.84.65-1.95.65-2.95-.05-1.27-.89-1.54-2.31-.66-3.57ZM291.81,141.97c.25-.53.17-1.04-.22-1.31-.38-.27-.9-.17-1.3.25l1.52,1.06Z"/>
          <path class="cls-6" d="M295.57,142.31l1.17.89-.24.32c.42-.07.89,0,1.36.35.15.11.28.24.39.38l-.69.9c-.15-.15-.31-.29-.46-.41-.51-.39-.99-.5-1.36-.02l-1.81,2.36-1.27-.97,2.92-3.81Z"/>
          <path class="cls-6" d="M301.86,147.3l1.11.97-.23.26c.45-.02.88.12,1.25.44,1.04.92,1.13,2.35.13,3.5-1.01,1.15-2.44,1.24-3.48.33-.32-.28-.51-.62-.58-1.01l-1.4,1.59-1.21-1.06,4.41-5.02ZM301.28,151.8c.44.39,1.1.24,1.64-.38.54-.62.61-1.29.16-1.68-.44-.39-1.1-.24-1.64.38-.54.62-.6,1.29-.16,1.68Z"/>
          <path class="cls-6" d="M304.26,154.09c.83-.86,1.83-.16,2.6.4.5.36.92.66,1.14.43.21-.22.15-.58-.17-.89-.32-.31-.68-.36-.91-.13l-1.12-1.09c.68-.71,1.8-.54,2.79.42,1,.97,1.19,2.08.51,2.79l-1.67,1.72c-.19.2-.34.54-.43.83l-1.12-1.09c.04-.13.09-.26.15-.38-.44,0-.92-.17-1.36-.59-.85-.83-.99-1.83-.41-2.43ZM305.68,155.96c.4.38.92.41,1.28.03l.2-.21c-.12-.07-.23-.15-.34-.23-.56-.41-1.07-.77-1.38-.45-.2.21-.13.5.24.86Z"/>
          <path class="cls-6" d="M311.44,156.29l1.02,1.07-.29.28c.42,0,.88.13,1.29.56.13.13.24.28.32.44l-.82.78c-.13-.17-.26-.34-.39-.47-.44-.46-.9-.65-1.34-.23l-2.15,2.04-1.11-1.16,3.47-3.3Z"/>
          <path class="cls-6" d="M312.5,162.25l1.71-1.52-.49-.54.76-.67.48.54,1.06-.94,1.07,1.2-1.06.94.63.71-.76.67-.63-.71-1.63,1.45c-.17.15-.21.33-.06.5l.41.46-.91.81-.57-.64c-.67-.76-.68-1.66-.01-2.26Z"/>
          <path class="cls-6" d="M315.72,164.51c1.18-.97,2.64-.8,3.64.42,1,1.23.87,2.68-.3,3.64-1.18.97-2.64.8-3.64-.42-1-1.22-.88-2.68.3-3.64ZM316.32,167.4c.39.48,1.07.45,1.71-.08.64-.52.8-1.18.41-1.66-.39-.48-1.07-.45-1.71.08-.64.52-.8,1.18-.41,1.66Z"/>
          <path class="cls-6" d="M319.47,170.04l2.38-1.77.95,1.28-2.38,1.77c-.38.28-.45.73-.16,1.12.29.39.73.45,1.12.17l2.38-1.77.96,1.29-3.85,2.86-.88-1.18.32-.24c-.42-.04-.85-.24-1.21-.71-.65-.87-.58-2.11.37-2.81Z"/>
          <path class="cls-6" d="M323.27,175.83l1.89-1.29-.41-.6.84-.57.41.6,1.17-.8.91,1.32-1.17.8.53.78-.83.57-.53-.78-1.81,1.24c-.19.13-.25.3-.12.48l.35.51-1,.69-.48-.71c-.57-.84-.46-1.74.28-2.24Z"/>
        </g>
        <path class="cls-8" d="M341.27,177.46c-.23-1.19-.78-2.45-1.28-3.56-2.73-6.07-6.04-12.56-9.75-18.11-6.61-9.89-15.99-19.78-25.46-27.16-7.99-6.22-18.28-12.32-27.72-16.18-12.51-5.12-26.07-7.94-39.6-8.91,13.44-.92,26.75.91,39.6,4.53,10.36,2.92,19.07,6.68,28.29,12.07,9.71,5.68,17.75,12.27,25.46,20.3,10.28,10.72,18.47,23.26,23.76,37.03h-13.29Z"/>
        <text class="cls-4" transform="translate(124.07 289.87)"><tspan class="cls-22" x="0" y="0">P</tspan><tspan x="17.39" y="0">ôle Martinique</tspan></text>
        <g>
          <path class="cls-10" d="M100.56,246.56c0-6.3,4.03-10.58,9.83-10.58s3.28.5,4.54,1.51v-8.82h6.55v27.71h-6.05v-1.51c-1.26,1.26-3.02,2.02-5.04,2.02-5.54,0-9.83-4.28-9.83-10.58h0v.25ZM111.14,252.11c2.52,0,4.03-2.27,4.03-5.54s-1.51-5.54-4.03-5.54-4.03,2.27-4.03,5.54,1.51,5.54,4.03,5.54Z"/>
          <path class="cls-13" d="M124.74,246.56c0-6.3,4.28-10.58,10.58-10.58s10.58,4.28,10.58,10.58,0,1.26,0,2.02h-14.11c.25,2.27,1.76,4.03,3.78,4.03s2.52-.76,3.02-2.02h6.8c-1.26,4.28-5.04,6.8-9.83,6.8s-10.58-4.28-10.58-10.58h-.25v-.25ZM139.1,244.55c-.25-2.27-1.76-4.03-3.78-4.03s-3.28,1.51-3.78,4.03h7.56Z"/>
          <path class="cls-16" d="M147.92,250.09h6.3c0,1.51,1.26,2.27,3.28,2.27s3.28-.76,3.28-2.02-2.02-2.02-4.54-2.52c-3.53-.76-7.81-1.76-7.81-6.05s3.53-6.05,9.07-6.05,9.07,2.52,9.07,6.3h-6.3c0-1.01-1.01-1.76-2.77-1.76s-2.77.5-2.77,1.51,1.76,1.51,4.03,2.02c3.53.76,8.31,1.51,8.31,6.55s-3.78,6.55-9.57,6.55-9.57-2.77-9.57-6.8h0Z"/>
          <path class="cls-14" d="M189.24,228.93h7.05l10.33,27.71h-6.8l-1.76-5.29h-10.08l-2.02,5.29h-6.8l10.33-27.71h-.25ZM195.79,245.56l-3.02-8.57-3.02,8.57h6.05Z"/>
          <path class="cls-15" d="M209.15,236.49h6.05v1.76c1.26-1.26,2.77-2.27,5.29-2.27,4.54,0,8.31,3.28,8.31,8.06v12.35h-6.55v-12.35c0-2.02-1.26-3.28-3.28-3.28s-3.28,1.26-3.28,3.28v12.35h-6.55v-19.9h0Z"/>
          <path class="cls-11" d="M234.09,250.34v-9.57h-3.02v-4.28h3.02v-5.79h6.55v5.79h3.78v4.28h-3.78v9.07c0,1.01.5,1.51,1.26,1.51h2.52v5.04h-3.53c-4.03,0-6.8-2.52-6.8-6.05h0Z"/>
          <path class="cls-19" d="M251.48,227.16c2.02,0,3.53,1.51,3.53,3.53s-1.51,3.53-3.53,3.53-3.53-1.51-3.53-3.53,1.51-3.53,3.53-3.53ZM248.2,236.49h6.55v19.9h-6.55v-19.9Z"/>
          <path class="cls-20" d="M259.03,228.93h6.55v27.71h-6.55v-27.71Z"/>
          <path class="cls-21" d="M270.12,228.93h6.55v27.71h-6.55v-27.71Z"/>
          <path class="cls-18" d="M279.95,246.56c0-6.3,4.28-10.58,10.58-10.58s10.58,4.28,10.58,10.58,0,1.26,0,2.02h-14.11c.5,2.27,1.76,4.03,3.78,4.03s2.52-.76,3.02-2.02h6.8c-1.26,4.28-5.04,6.8-9.83,6.8s-10.58-4.28-10.58-10.58h0l-.25-.25ZM294.31,244.55c-.5-2.27-1.76-4.03-3.78-4.03s-3.28,1.51-3.78,4.03h7.56Z"/>
          <path class="cls-17" d="M303.13,250.09h6.3c0,1.51,1.26,2.27,3.28,2.27s3.28-.76,3.28-2.02-2.02-2.02-4.54-2.52c-3.53-.76-7.81-1.76-7.81-6.05s3.53-6.05,9.07-6.05,9.07,2.52,9.07,6.3h-6.3c0-1.01-1.01-1.76-2.77-1.76s-2.77.5-2.77,1.51,1.76,1.51,4.03,2.02c3.53.76,8.31,1.51,8.31,6.55s-3.78,6.55-9.57,6.55-9.57-2.77-9.57-6.8h0Z"/>
        </g>
      </g>
      <rect class="cls-1" width="449.38" height="449.38"/>
    </g>
  </g>
</svg>